<svg version="1.1" id="Layer_1" xmlns="http://www.w3.org/2000/svg" xmlns:xlink="http://www.w3.org/1999/xlink" x="0px" y="0px"
	 width="100%" viewBox="0 0 250 250" enable-background="new 0 0 250 250" xml:space="preserve">
<path fill="#000000" opacity="1.000000" stroke="none" 
	d="
M1.000000,96.000000 
	C1.000000,64.000008 1.000000,32.500011 1.000000,1.000013 
	C84.333313,1.000008 167.666626,1.000008 250.999954,1.000004 
	C250.999969,84.333298 250.999969,167.666595 250.999985,250.999908 
	C167.666718,250.999939 84.333435,250.999939 1.000076,250.999969 
	C1.000000,199.500000 1.000000,148.000000 1.000000,96.000000 
M103.936287,137.326004 
	C104.060097,135.712006 104.183907,134.098022 104.419106,131.031937 
	C112.570168,132.900101 120.513306,133.788467 127.723259,136.574356 
	C141.189835,141.777771 146.328796,154.432114 151.866440,166.423065 
	C155.953064,175.272034 159.553223,184.369385 164.069672,192.989548 
	C168.717377,201.860199 174.404144,210.180557 179.267258,218.946426 
	C182.246307,224.316223 182.389160,224.615738 187.511841,221.162292 
	C198.720383,213.606125 208.247360,204.188721 216.614395,193.697601 
	C225.210327,182.919495 231.515594,170.756760 234.726776,157.291763 
	C237.714661,144.763107 240.018997,132.094391 238.031265,119.068199 
	C236.816147,111.105064 236.860916,102.813263 234.630432,95.167778 
	C228.598267,74.491196 217.556274,56.861805 201.179657,42.429764 
	C191.852829,34.210415 181.804718,27.649652 170.495834,22.666994 
	C150.491684,13.853238 129.655991,12.056855 108.303436,15.057961 
	C88.791191,17.800409 70.924599,24.751965 55.855255,37.788013 
	C49.411457,43.362354 42.454762,48.720234 37.411575,55.438019 
	C31.639963,63.126114 27.450308,72.072151 23.080307,80.727600 
	C13.762228,99.183464 12.563666,119.211830 14.228007,139.173004 
	C15.460837,153.958893 19.791315,168.226166 27.498997,181.406158 
	C36.097664,196.109756 46.833920,208.706009 60.743324,218.386765 
	C74.134392,227.706772 88.546616,234.636887 105.072395,237.081024 
	C121.755432,239.548416 138.169846,239.423462 154.484924,235.308151 
	C164.819138,232.701462 164.631348,232.574844 159.930634,223.403076 
	C158.212830,220.051361 156.311310,219.563995 152.806992,220.468811 
	C139.750259,223.840088 126.766548,225.564545 112.987526,223.520447 
	C97.025146,221.152451 82.648888,215.654877 69.516792,206.855820 
	C52.197987,195.251495 40.784481,179.034424 33.742775,159.396790 
	C27.540798,142.100952 26.587889,124.687782 29.977524,106.782104 
	C32.994385,90.845604 39.750702,76.495354 49.793564,64.091965 
	C59.048023,52.662292 70.511963,43.584923 84.282852,37.445942 
	C96.905640,31.818773 109.943321,28.316710 123.616020,28.184330 
	C131.923386,28.103897 140.398712,29.220001 148.541275,30.985405 
	C190.302551,40.039730 218.550613,74.297752 223.717056,114.779137 
	C226.026093,132.871399 223.572342,150.986618 215.124008,167.804886 
	C209.663910,178.674438 202.938187,188.560745 194.325790,197.147568 
	C192.909836,198.559326 191.397141,200.413315 189.734940,197.322296 
	C185.212692,188.912796 180.219498,180.720642 176.243149,172.061142 
	C168.375885,154.928162 162.509705,136.532288 143.369751,126.556679 
	C147.212997,125.219734 150.176270,124.259422 153.088394,123.163261 
	C163.948257,119.075500 172.309494,112.384026 175.590637,100.748688 
	C179.165283,88.072578 176.932922,76.202896 168.021515,66.653664 
	C158.736343,56.703903 146.158463,53.144184 132.847534,53.097504 
	C116.903099,53.041592 100.956291,53.659237 84.192116,54.319645 
	C84.128540,54.812836 84.009392,55.306019 84.009300,55.799221 
	C84.000671,100.963120 83.994156,146.127014 84.039368,191.290863 
	C84.040558,192.478882 84.611374,193.666321 85.858833,194.948288 
	C90.519684,194.960403 95.182457,194.895966 99.840706,195.012253 
	C102.808701,195.086365 104.078186,193.860382 104.012604,190.868286 
	C103.888611,185.211288 103.931671,179.550613 104.001671,172.972305 
	C103.941658,161.385773 103.881645,149.799225 103.936287,137.326004 
z"/>
<path fill="#555555" opacity="1.000000" stroke="none" 
	d="
M103.905319,173.891464 
	C103.931671,179.550613 103.888611,185.211288 104.012604,190.868286 
	C104.078186,193.860382 102.808701,195.086365 99.840706,195.012253 
	C95.182457,194.895966 90.519684,194.960403 85.409378,194.442627 
	C84.976791,147.286377 84.993652,100.635780 85.010513,53.985180 
	C100.956291,53.659237 116.903099,53.041592 132.847534,53.097504 
	C146.158463,53.144184 158.736343,56.703903 168.021515,66.653664 
	C176.932922,76.202896 179.165283,88.072578 175.590637,100.748688 
	C172.309494,112.384026 163.948257,119.075500 153.088394,123.163261 
	C150.176270,124.259422 147.212997,125.219734 143.369751,126.556679 
	C162.509705,136.532288 168.375885,154.928162 176.243149,172.061142 
	C180.219498,180.720642 185.212692,188.912796 189.734940,197.322296 
	C191.397141,200.413315 192.909836,198.559326 194.325790,197.147568 
	C202.938187,188.560745 209.663910,178.674438 215.124008,167.804886 
	C223.572342,150.986618 226.026093,132.871399 223.717056,114.779137 
	C218.550613,74.297752 190.302551,40.039730 148.541275,30.985405 
	C140.398712,29.220001 131.923386,28.103897 123.616020,28.184330 
	C109.943321,28.316710 96.905640,31.818773 84.282852,37.445942 
	C70.511963,43.584923 59.048023,52.662292 49.793564,64.091965 
	C39.750702,76.495354 32.994385,90.845604 29.977524,106.782104 
	C26.587889,124.687782 27.540798,142.100952 33.742775,159.396790 
	C40.784481,179.034424 52.197987,195.251495 69.516792,206.855820 
	C82.648888,215.654877 97.025146,221.152451 112.987526,223.520447 
	C126.766548,225.564545 139.750259,223.840088 152.806992,220.468811 
	C156.311310,219.563995 158.212830,220.051361 159.930634,223.403076 
	C164.631348,232.574844 164.819138,232.701462 154.484924,235.308151 
	C138.169846,239.423462 121.755432,239.548416 105.072395,237.081024 
	C88.546616,234.636887 74.134392,227.706772 60.743324,218.386765 
	C46.833920,208.706009 36.097664,196.109756 27.498997,181.406158 
	C19.791315,168.226166 15.460837,153.958893 14.228007,139.173004 
	C12.563666,119.211830 13.762228,99.183464 23.080307,80.727600 
	C27.450308,72.072151 31.639963,63.126114 37.411575,55.438019 
	C42.454762,48.720234 49.411457,43.362354 55.855255,37.788013 
	C70.924599,24.751965 88.791191,17.800409 108.303436,15.057961 
	C129.655991,12.056855 150.491684,13.853238 170.495834,22.666994 
	C181.804718,27.649652 191.852829,34.210415 201.179657,42.429764 
	C217.556274,56.861805 228.598267,74.491196 234.630432,95.167778 
	C236.860916,102.813263 236.816147,111.105064 238.031265,119.068199 
	C240.018997,132.094391 237.714661,144.763107 234.726776,157.291763 
	C231.515594,170.756760 225.210327,182.919495 216.614395,193.697601 
	C208.247360,204.188721 198.720383,213.606125 187.511841,221.162292 
	C182.389160,224.615738 182.246307,224.316223 179.267258,218.946426 
	C174.404144,210.180557 168.717377,201.860199 164.069672,192.989548 
	C159.553223,184.369385 155.953064,175.272034 151.866440,166.423065 
	C146.328796,154.432114 141.189835,141.777771 127.723259,136.574356 
	C120.513306,133.788467 112.570168,132.900101 104.419106,131.031937 
	C104.183907,134.098022 104.060097,135.712006 103.628746,138.083405 
	C103.215118,149.842697 103.092682,160.844498 103.042427,171.846649 
	C103.039322,172.526932 103.604530,173.209793 103.905319,173.891464 
M103.976303,116.024811 
	C103.976303,116.024811 103.967209,115.930962 104.588585,116.497215 
	C112.359718,116.376144 120.130859,116.255081 128.779938,115.997017 
	C135.017776,114.214905 141.508698,113.026550 147.430344,110.502594 
	C155.083954,107.240417 159.506104,94.662514 156.986130,86.659828 
	C154.108490,77.521172 147.742828,71.793068 138.778976,70.362900 
	C129.738510,68.920502 120.398849,69.252731 111.184891,69.029846 
	C103.699356,68.848770 103.716927,68.993965 103.971703,76.179131 
	C104.030479,77.836662 103.890419,79.501251 103.323601,81.782959 
	C103.217567,90.823181 103.111542,99.863396 103.210663,109.588943 
	C103.140480,111.389626 103.070297,113.190308 103.312004,115.378662 
	C103.534096,115.628235 103.786880,115.841408 103.976303,116.024811 
z"/>
<path fill="#8A8A8A" opacity="1.000000" stroke="none" 
	d="
M84.601318,54.152412 
	C84.993652,100.635780 84.976791,147.286377 84.938240,194.395508 
	C84.611374,193.666321 84.040558,192.478882 84.039368,191.290863 
	C83.994156,146.127014 84.000671,100.963120 84.009300,55.799221 
	C84.009392,55.306019 84.128540,54.812836 84.601318,54.152412 
z"/>
<path fill="#D2D2D2" opacity="1.000000" stroke="none" 
	d="
M103.953491,173.431885 
	C103.604530,173.209793 103.039322,172.526932 103.042427,171.846649 
	C103.092682,160.844498 103.215118,149.842697 103.571426,138.526749 
	C103.881645,149.799225 103.941658,161.385773 103.953491,173.431885 
z"/>
<path fill="#000000" opacity="1.000000" stroke="none" 
	d="
M103.000122,114.990990 
	C103.070297,113.190308 103.140480,111.389626 103.497742,109.060318 
	C103.803825,99.408661 103.822838,90.285622 103.841858,81.162590 
	C103.890419,79.501251 104.030479,77.836662 103.971703,76.179131 
	C103.716927,68.993965 103.699356,68.848770 111.184891,69.029846 
	C120.398849,69.252731 129.738510,68.920502 138.778976,70.362900 
	C147.742828,71.793068 154.108490,77.521172 156.986130,86.659828 
	C159.506104,94.662514 155.083954,107.240417 147.430344,110.502594 
	C141.508698,113.026550 135.017776,114.214905 127.881012,116.021027 
	C119.310463,116.007011 111.638832,115.968987 103.967209,115.930954 
	C103.967209,115.930962 103.976303,116.024811 103.928322,115.773804 
	C103.586929,115.345535 103.293526,115.168266 103.000122,114.990990 
z"/>
<path fill="#C1C1C1" opacity="1.000000" stroke="none" 
	d="
M103.582726,81.472778 
	C103.822838,90.285622 103.803825,99.408661 103.395157,108.717651 
	C103.111542,99.863396 103.217567,90.823181 103.582726,81.472778 
z"/>
<path fill="#7C7C7C" opacity="1.000000" stroke="none" 
	d="
M104.277893,116.214081 
	C111.638832,115.968987 119.310463,116.007011 127.442039,116.089523 
	C120.130859,116.255081 112.359718,116.376144 104.277893,116.214081 
z"/>
<path fill="#7C7C7C" opacity="1.000000" stroke="none" 
	d="
M103.156067,115.184830 
	C103.293526,115.168266 103.586929,115.345535 103.975342,115.770493 
	C103.786880,115.841408 103.534096,115.628235 103.156067,115.184830 
z"/>
</svg>